<?xml version="1.0" encoding="UTF-8"?>
<svg id="Layer_2" data-name="Layer 2" xmlns="http://www.w3.org/2000/svg" viewBox="0 0 595.54 212.96">
  <defs>
    <style>
      .cls-1 {
        stroke-width: 0px;
      }
    </style>
  </defs>
  <g id="Layer_1-2" data-name="Layer 1">
    <g>
      <path class="cls-1" d="M0,57.42v104.27h26.08v-66.15L0,57.42ZM64.43,51.28H5.54l27.2,27.2h30.88c13.82,0,21.42,8.88,21.42,25.01v58.2h25.88v-57.96c0-34.31-16.08-52.45-46.49-52.45Z"/>
      <path class="cls-1" d="M209.95,51.28v57.96c0,16.05-7.81,25.25-21.42,25.25h-17.74c-13.61,0-21.42-9.2-21.42-25.25v-57.96h-25.88v57.96c0,34.31,16.07,52.45,46.49,52.45h19.34c30.42,0,46.49-18.14,46.49-52.45v-57.96h-25.88Z"/>
      <path class="cls-1" d="M294.71,51.28c-30.28,0-46.29,18.14-46.29,52.45v57.96h25.88v-58.2c0-16.13,7.53-25.01,21.22-25.01h23.52v-27.2h-24.33Z"/>
      <path class="cls-1" d="M391.08,51.28h-14.11c-29.51,0-50.12,22.66-50.12,55.08s20.61,55.32,50.12,55.32h14.11c29.5,0,50.11-22.75,50.11-55.32s-20.61-55.08-50.11-55.08ZM391.08,134.49h-14.31c-14.04,0-24.24-11.83-24.24-28.13s9.97-27.89,24.24-27.89h14.31c14.04,0,24.24,11.73,24.24,27.89s-10.19,28.13-24.24,28.13Z"/>
      <g>
        <polygon class="cls-1" points="424.72 0 482.36 106.12 424.25 212.96 509.89 106.12 424.72 0"/>
        <polygon class="cls-1" points="595.07 0 537.42 106.12 595.54 212.96 509.89 106.12 595.07 0"/>
      </g>
    </g>
  </g>
</svg>