<?xml version="1.0" encoding="UTF-8"?>
<svg id="Layer_1" data-name="Layer 1" xmlns="http://www.w3.org/2000/svg" viewBox="0 0 3618.73 682.12">
  <defs>
    <style>
      .cls-1 {
        fill: #231f20;
      }
    </style>
  </defs>
  <g>
    <path class="cls-1" d="M1064.81,451.3c0,65.52-53.3,118.82-118.82,118.82h-56.01c-65.52,0-118.82-53.31-118.82-118.82v-224.08h-105.25v224.08c0,123.55,100.52,224.07,224.07,224.07h56.01c123.55,0,224.07-100.52,224.07-224.07v-224.08h-105.25v224.08Z"/>
    <path class="cls-1" d="M1809,365.58c0-76.29-62.06-138.36-138.35-138.36h-329.23v105.25h329.23c17.94,0,33.1,15.16,33.1,33.1s-15.16,33.1-33.1,33.1h-192.02c-76.28,0-138.35,62.06-138.35,138.34v138.35h105.25v-138.35c0-17.94,15.16-33.09,33.1-33.09h66.45l140.59,171.44h127.59l-140.6-171.45c75.37-1.08,136.34-62.72,136.34-138.34Z"/>
    <path class="cls-1" d="M2436.28,227.22h-257c-123.55,0-224.07,100.52-224.07,224.08s100.52,224.07,224.07,224.07h257c123.56,0,224.07-100.52,224.07-224.07s-100.52-224.08-224.07-224.08ZM2436.28,570.12h-257c-65.52,0-118.82-53.31-118.82-118.82s53.3-118.82,118.82-118.82h257c65.52,0,118.82,53.31,118.82,118.82s-53.3,118.82-118.82,118.82Z"/>
    <polygon class="cls-1" points="2946.69 227.22 2807.14 227.22 3255.29 675.37 3394.83 675.37 2946.69 227.22"/>
    <polygon class="cls-1" points="2778.3 572.16 2675.09 675.37 2949.33 675.37 3006.65 619.88 2964.23 572.16 2778.3 572.16"/>
    <path class="cls-1" d="M431.22,230.31l-40.87-3.09v307.44S145.68,255.96,143.35,253.67c-3.75-3.69-7.69-7.06-11.84-9.97-13.71-10.2-29.03-15.41-45.42-15.41L0,227.98v365.42C0,647.92,28.34,672.29,58.71,672.29l40.38,3.08v-311.25s255.19,291.86,259.33,294.77c13.71,10.2,29.03,15.41,45.42,15.41l86.09.31v-365.42c0-54.53-28.34-78.89-58.71-78.89Z"/>
  </g>
  <path class="cls-1" d="M3616.04,5.41s-83.37-2.35-120.7,1.26c-23.54,2.28-43.52,15.82-52.54,23.68-5.67,5.67-170.58,170.58-170.58,170.58-64.7,65.17-124.08,125.01-124.08,125.01l74.21,73.15L3616.04,5.41Z"/>
</svg>